<mxfile host="app.diagrams.net" modified="2021-09-26T22:49:22.193Z" agent="5.0 (Windows NT 10.0; Win64; x64) AppleWebKit/537.36 (KHTML, like Gecko) Chrome/93.0.4577.82 Safari/537.36" etag="QgDX8XNynkm30LmyAHfh" version="15.3.2" type="github">
  <diagram id="Ndykjl8ZHnAqzwj76zNw" name="Page-1">
    <mxGraphModel dx="1038" dy="588" grid="1" gridSize="10" guides="1" tooltips="1" connect="1" arrows="1" fold="1" page="1" pageScale="1" pageWidth="850" pageHeight="1100" math="0" shadow="0">
      <root>
        <mxCell id="0" />
        <mxCell id="1" parent="0" />
        <mxCell id="NVG-24-lghH6YKm_vaJw-1" value="" style="shape=image;verticalLabelPosition=bottom;verticalAlign=top;imageAspect=0;aspect=fixed;image=data:image/svg+xml,PHN2ZyB2ZXJzaW9uPSIxLjEiIGlkPSJBdXRvX1NjYWxpbmciIHhtbG5zPSJodHRwOi8vd3d3LnczLm9yZy8yMDAwL3N2ZyIgeG1sbnM6eGxpbms9Imh0dHA6Ly93d3cudzMub3JnLzE5OTkveGxpbmsiIHg9IjBweCIgeT0iMHB4IiB2aWV3Qm94PSIwIDAgMTYxLjkgMTYyIiBlbmFibGUtYmFja2dyb3VuZD0ibmV3IDAgMCAxNjEuOSAxNjIiIHhtbDpzcGFjZT0icHJlc2VydmUiPiYjeGE7PGc+JiN4YTsJPGc+JiN4YTsJCTxnPiYjeGE7CQkJPHJlY3QgeD0iMTA2LjYiIHk9IjI2LjYiIGZpbGw9IiMzMTJEMkEiIHdpZHRoPSI4IiBoZWlnaHQ9IjguNSIvPiYjeGE7CQkJPHJlY3QgeD0iODYuNSIgeT0iMjYuNiIgZmlsbD0iIzMxMkQyQSIgd2lkdGg9IjgiIGhlaWdodD0iOC41Ii8+JiN4YTsJCQk8cmVjdCB4PSI2Ni41IiB5PSIyNi42IiBmaWxsPSIjMzEyRDJBIiB3aWR0aD0iOCIgaGVpZ2h0PSI4LjUiLz4mI3hhOwkJCTxyZWN0IHg9IjQ2LjQiIHk9IjI2LjYiIGZpbGw9IiMzMTJEMkEiIHdpZHRoPSI4IiBoZWlnaHQ9IjguNSIvPiYjeGE7CQkJPHJlY3QgeD0iMjYuMyIgeT0iMjYuNiIgZmlsbD0iIzMxMkQyQSIgd2lkdGg9IjgiIGhlaWdodD0iOC41Ii8+JiN4YTsJCTwvZz4mI3hhOwk8L2c+JiN4YTsJPGc+JiN4YTsJCTxnPiYjeGE7CQkJPHJlY3QgeD0iMTI2LjciIHk9IjI2LjYiIGZpbGw9IiMzMTJEMkEiIHdpZHRoPSI4LjYiIGhlaWdodD0iOC41Ii8+JiN4YTsJCTwvZz4mI3hhOwk8L2c+JiN4YTsJPGc+JiN4YTsJCTxnPiYjeGE7CQkJPHJlY3QgeD0iMTI2LjciIHk9IjEyNy4yIiBmaWxsPSIjMzEyRDJBIiB3aWR0aD0iOC42IiBoZWlnaHQ9IjgiLz4mI3hhOwkJCTxyZWN0IHg9IjEyNi43IiB5PSIxMDcuMiIgZmlsbD0iIzMxMkQyQSIgd2lkdGg9IjguNiIgaGVpZ2h0PSI4Ii8+JiN4YTsJCQk8cmVjdCB4PSIxMjYuNyIgeT0iODcuMiIgZmlsbD0iIzMxMkQyQSIgd2lkdGg9IjguNiIgaGVpZ2h0PSI4Ii8+JiN4YTsJCQk8cmVjdCB4PSIxMjYuNyIgeT0iNjcuMSIgZmlsbD0iIzMxMkQyQSIgd2lkdGg9IjguNiIgaGVpZ2h0PSI4Ii8+JiN4YTsJCQk8cmVjdCB4PSIxMjYuNyIgeT0iNDcuMSIgZmlsbD0iIzMxMkQyQSIgd2lkdGg9IjguNiIgaGVpZ2h0PSI4Ii8+JiN4YTsJCTwvZz4mI3hhOwk8L2c+JiN4YTsJPHBhdGggZmlsbD0iIzMxMkQyQSIgZD0iTTEwMywxMzYuOUgyNS4zVjU5LjNIMTAzVjEzNi45eiBNMzIuMywxMjkuOUg5NlY2Ni4zSDMyLjNWMTI5Ljl6Ii8+JiN4YTsJPHBhdGggZmlsbD0iIzMxMkQyQSIgZD0iTTE1Mi44LDE1Mi45SDlWOS4yaDE0My44VjE1Mi45eiBNMTgsMTQzLjloMTI1LjhWMTguMkgxOFYxNDMuOXoiLz4mI3hhOwk8cG9seWdvbiBmaWxsPSIjMzEyRDJBIiBwb2ludHM9IjEyMi43LDQ5LjEgMTIzLjksMzcuNSAxMTIuNSwzOS4zIDExNC45LDQxLjYgMTA4LjYsNDguMiAxMDUuOSw0NS42IDEwNC42LDU3LjIgMTE2LjEsNTUuMyAgICAxMTMuNyw1My4xIDEyMCw0Ni41ICAiLz4mI3hhOwk8cGF0aCBmaWxsPSIjMzEyRDJBIiBkPSJNNTMuNiwxMDMuNEgzOS4yVjg5LjFoMTQuM0w1My42LDEwMy40TDUzLjYsMTAzLjR6IE00My4yLDk5LjRoNi4zdi02LjNoLTYuM1Y5OS40eiBNODguOCwxMDMuNEg3NC40Vjg5LjEgICBoMTQuM0w4OC44LDEwMy40TDg4LjgsMTAzLjR6IE03OC40LDk5LjRoNi4zdi02LjNoLTYuM1Y5OS40eiBNNzEuMSwxMDMuNEg1Ni44Vjg5LjFoMTQuM1YxMDMuNHogTTYwLjgsOTkuNGg2LjN2LTYuM2gtNi4zVjk5LjR6ICAgIE04OC44LDg2LjFINzQuNFY3MS43aDE0LjNMODguOCw4Ni4xTDg4LjgsODYuMXogTTc4LjQsODIuMWg2LjN2LTYuM2gtNi4zVjgyLjF6IE03MS4xLDg2LjFINTYuOFY3MS43aDE0LjNWODYuMXogTTYwLjgsODIuMWg2LjMgICB2LTYuM2gtNi4zVjgyLjF6IE04OS42LDEyNS4xSDM4Ljh2LTE4LjZoNTAuOFYxMjUuMXogTTQzLjgsMTIwLjFoNDAuOHYtOC42SDQzLjhWMTIwLjF6IE03Ny4yLDExMy40Yy0xLjMsMC0yLjQsMS4xLTIuNCwyLjQgICBzMS4xLDIuNCwyLjQsMi40czIuNC0xLjEsMi40LTIuNEM3OS43LDExNC41LDc4LjYsMTEzLjQsNzcuMiwxMTMuNHogTTUzLjYsODYuMUgzOS4yVjcxLjdoMTQuM0w1My42LDg2LjFMNTMuNiw4Ni4xeiBNNDMuMiw4Mi4xICAgaDYuM3YtNi4zaC02LjNWODIuMXoiLz4mI3hhOzwvZz4mI3hhOzwvc3ZnPg==" vertex="1" parent="1">
          <mxGeometry x="270" y="160" width="162" height="162" as="geometry" />
        </mxCell>
      </root>
    </mxGraphModel>
  </diagram>
</mxfile>
